<?xml version="1.0" encoding="UTF-8" standalone="no"?>
<!-- Created with Inkscape (http://www.inkscape.org/) -->

<svg
   width="91.465714mm"
   height="47.986336mm"
   viewBox="0 0 91.465714 47.986336"
   version="1.1"
   id="svg980"
   xmlns="http://www.w3.org/2000/svg"
   xmlns:svg="http://www.w3.org/2000/svg">
  <defs
     id="defs977" />
  <g
     id="layer1"
     transform="translate(-17.909918,-27.980252)">
    <path
       style="fill:#000000;stroke-width:0.17572"
       d="m 23.210454,69.193546 c 2.127297,-12.55022 9.09439,-23.329732 19.389865,-30.000079 1.513204,-0.980391 1.762277,-1.089549 1.867233,-0.818328 0.06661,0.172133 0.97226,3.668112 2.012552,7.768847 1.040292,4.10073 2.002349,7.6439 2.137906,7.87372 0.374083,0.6342 1.252891,1.12652 2.010869,1.12652 1.267153,0 2.292242,-1.07009 2.292242,-2.39287 0,-0.32659 -0.930762,-4.22416 -2.068361,-8.661271 -1.720949,-6.712432 -2.027535,-8.095037 -1.825303,-8.231534 0.287331,-0.193935 3.037391,-1.13419 4.487948,-1.534445 1.353747,-0.373542 4.609528,-1.000591 5.195296,-1.000591 0.57194,0 0.246784,-1.070606 3.203351,10.547334 1.310821,5.150917 2.496951,9.631827 2.635845,9.957567 0.939666,2.20376 4.342409,1.42435 4.388634,-1.00523 0.0071,-0.37298 -1.085395,-4.95367 -2.427759,-10.179334 -1.342363,-5.225658 -2.390237,-9.555201 -2.328608,-9.621206 0.169583,-0.181623 4.570324,0.25442 6.668531,0.660745 2.115763,0.409724 4.502509,1.051177 4.706953,1.265023 0.07623,0.07974 1.197625,4.282594 2.491984,9.339682 1.294364,5.05709 2.428404,9.34379 2.520084,9.52601 0.39446,0.78391 1.03616,1.20968 1.94484,1.29039 0.79141,0.0703 0.96725,0.0199 1.45066,-0.41575 0.63151,-0.5691 1.04728,-1.33972 1.04728,-1.94106 0,-0.31372 -3.43919,-14.145642 -3.82343,-15.377267 -0.0897,-0.287626 1.89119,0.777289 3.89421,2.093474 9.65475,6.344136 16.651274,17.039043 18.764844,28.684013 0.19969,1.10019 0.40008,2.18448 0.44531,2.40952 l 0.0822,0.40916 H 63.642796 22.909918 Z"
       id="path1053" />
  </g>
</svg>
