<?xml version="1.0" encoding="UTF-8" standalone="no"?>
<!-- Created with Inkscape (http://www.inkscape.org/) -->

<svg
   width="121.79565mm"
   height="55.524811mm"
   viewBox="0 0 121.79566 55.524811"
   version="1.1"
   id="svg5"
   xmlns="http://www.w3.org/2000/svg"
   xmlns:svg="http://www.w3.org/2000/svg">
  <defs
     id="defs2" />
  <g
     id="layer1"
     transform="translate(-8.767342,-17.894853)">
    <path
       style="fill:#000000;stroke-width:0.214758"
       d="m 65.018249,68.183586 c -6.32174,-0.61773 -13.14369,-2.7696 -19.013066,-5.99734 -9.323373,-5.1272 -17.295052,-13.72216 -21.87421,-23.5845 l -0.991,-2.13436 -3.184306,-0.005 c -2.64323,-0.004 -3.330317,-0.0737 -4.043605,-0.41032 -2.84258,-1.34143 -2.864468,-5.57865 -0.03617,-7.00125 0.723473,-0.3639 1.318929,-0.46434 2.752808,-0.46434 1.324737,0 1.828883,-0.0755 1.826879,-0.27363 -0.0015,-0.1505 -0.189893,-1.20947 -0.418602,-2.35327 -0.228709,-1.1438 -0.41708,-2.301279 -0.418602,-2.572178 l -0.0028,-0.492545 h 50.353744 50.353731 l -0.003,0.492545 c -10e-4,0.270899 -0.18989,1.428378 -0.4186,2.572178 -0.22871,1.1438 -0.41708,2.20277 -0.4186,2.35327 -0.002,0.19414 0.44331,0.27363 1.53272,0.27363 1.17388,0 1.75649,0.116 2.47385,0.49255 2.76477,1.45123 2.76477,5.44439 0,6.89562 -0.83602,0.43883 -1.25074,0.49255 -3.80304,0.49255 h -2.8647 l -1.31345,2.74064 c -1.53364,3.20009 -4.0598,7.21135 -6.32107,10.03716 -10.826322,13.52919 -27.28897,20.58788 -44.169181,18.9384 z"
       id="path872" />
  </g>
</svg>
